<svg width="67" height="35" viewBox="0 0 67 35" fill="none" xmlns="http://www.w3.org/2000/svg">
<path d="M18.0518 2.38224C17.7208 2.3734 17.3925 2.44418 17.094 2.5887C16.7955 2.73322 16.5354 2.94733 16.3354 3.21331L11.4287 9.76484L3.73554 12.4463C3.43188 12.553 3.15684 12.729 2.93191 12.9607C2.70697 13.1924 2.53826 13.4733 2.43895 13.7816C2.33964 14.0899 2.31242 14.4172 2.35944 14.7379C2.40646 15.0586 2.52643 15.3639 2.70997 15.6301L7.36668 22.3611L7.519 30.5647C7.52527 30.8896 7.60623 31.2087 7.75552 31.4968C7.9048 31.7849 8.11835 32.0341 8.37936 32.225C8.64037 32.4158 8.94173 32.543 9.25976 32.5966C9.57779 32.6502 9.90382 32.6287 10.2122 32.5338L17.9973 30.1419L25.7867 32.5338C26.0951 32.6287 26.4212 32.6502 26.7392 32.5966C27.0572 32.543 27.3586 32.4158 27.6196 32.225C27.8806 32.0341 28.0942 31.7849 28.2434 31.4968C28.3927 31.2087 28.4737 30.8896 28.48 30.5647L28.6264 22.3611L33.2904 15.6301C33.4739 15.3638 33.5938 15.0584 33.6407 14.7376C33.6876 14.4169 33.6603 14.0895 33.5608 13.7812C33.4614 13.4729 33.2925 13.192 33.0674 12.9604C32.8423 12.7288 32.5671 12.5528 32.2633 12.4463L24.5716 9.76484L19.6635 3.21331C19.4741 2.96159 19.2309 2.75615 18.9519 2.61226C18.6729 2.46838 18.3652 2.38975 18.0519 2.38224H18.0518Z" fill="#FFBC20" stroke="black" stroke-linejoin="round"/>
<path d="M14.4998 15.9468C16.6753 14.7087 17.5452 12.7086 16.4426 11.4793C15.34 10.25 12.6825 10.2571 10.5069 11.4951C8.33135 12.7332 7.46151 14.7334 8.56409 15.9626C9.66668 17.1919 12.3242 17.1848 14.4998 15.9468Z" fill="#FFF038"/>
<path d="M45.94 20.72C46.74 20.9733 47.3667 21.4 47.82 22C48.2733 22.5867 48.5 23.3133 48.5 24.18C48.5 25.4067 48.02 26.3533 47.06 27.02C46.1133 27.6733 44.7267 28 42.9 28H35.66V14H42.5C44.2067 14 45.5133 14.3267 46.42 14.98C47.34 15.6333 47.8 16.52 47.8 17.64C47.8 18.32 47.6333 18.9267 47.3 19.46C46.98 19.9933 46.5267 20.4133 45.94 20.72ZM38.88 16.44V19.74H42.1C42.9 19.74 43.5067 19.6 43.92 19.32C44.3333 19.04 44.54 18.6267 44.54 18.08C44.54 17.5333 44.3333 17.1267 43.92 16.86C43.5067 16.58 42.9 16.44 42.1 16.44H38.88ZM42.66 25.56C43.5133 25.56 44.1533 25.42 44.58 25.14C45.02 24.86 45.24 24.4267 45.24 23.84C45.24 22.68 44.38 22.1 42.66 22.1H38.88V25.56H42.66ZM66.093 29.5C65.6396 30.06 65.0863 30.4867 64.433 30.78C63.793 31.0733 63.0863 31.22 62.313 31.22C61.273 31.22 60.333 30.9933 59.493 30.54C58.653 30.1 57.693 29.3133 56.613 28.18C55.3463 28.02 54.213 27.6133 53.213 26.96C52.2263 26.3067 51.453 25.4667 50.893 24.44C50.3463 23.4 50.073 22.2533 50.073 21C50.073 19.6267 50.3996 18.3933 51.053 17.3C51.7196 16.1933 52.633 15.3267 53.793 14.7C54.9663 14.0733 56.2796 13.76 57.733 13.76C59.1863 13.76 60.493 14.0733 61.653 14.7C62.813 15.3267 63.7263 16.1933 64.393 17.3C65.0596 18.3933 65.393 19.6267 65.393 21C65.393 22.6267 64.933 24.0533 64.013 25.28C63.1063 26.5067 61.8996 27.36 60.393 27.84C60.7263 28.1867 61.0463 28.4333 61.353 28.58C61.673 28.74 62.013 28.82 62.373 28.82C63.2396 28.82 63.9996 28.4733 64.653 27.78L66.093 29.5ZM53.353 21C53.353 21.8667 53.5396 22.64 53.913 23.32C54.2996 24 54.8263 24.5333 55.493 24.92C56.1596 25.2933 56.9063 25.48 57.733 25.48C58.5596 25.48 59.3063 25.2933 59.973 24.92C60.6396 24.5333 61.1596 24 61.533 23.32C61.9196 22.64 62.113 21.8667 62.113 21C62.113 20.1333 61.9196 19.36 61.533 18.68C61.1596 18 60.6396 17.4733 59.973 17.1C59.3063 16.7133 58.5596 16.52 57.733 16.52C56.9063 16.52 56.1596 16.7133 55.493 17.1C54.8263 17.4733 54.2996 18 53.913 18.68C53.5396 19.36 53.353 20.1333 53.353 21Z" fill="white"/>
</svg>
